<svg xmlns="http://www.w3.org/2000/svg" data-name="Layer 1" viewBox="0 -20 210 260" x="0px" y="0px"><defs><style>.cls-1{fill-rule:evenodd;} </style></defs><path class="cls-1" fill="#fff" d="M22.84,147.91h5.21V25.79a4.84,4.84,0,0,1,4.78-5H140.32a5.2,5.2,0,0,1,5.2,5V47.72a5.19,5.19,0,0,1-5.2,5H125.53v20h42.26a5.21,5.21,0,0,1,5.23,5v70.15h4.16a15.66,15.66,0,0,1,0,31.32H22.84a15.66,15.66,0,0,1,0-31.32Zm0,21.31H177.18a5.64,5.64,0,0,0,0-11.28H22.84a5.64,5.64,0,0,0,0,11.28ZM163,82.78H54.7a4.82,4.82,0,0,1-4.78-5v-30a4.82,4.82,0,0,1,4.78-5h80.81V30.81H38V94.67H145.94a5.19,5.19,0,0,1,5.2,5v30.07a5.2,5.2,0,0,1-5.2,5H38v11.9H163ZM59.91,52.71v20h55.61v-20Zm25,72h56.24v-20H84.9Zm-10-20H58.05v20H74.92ZM48,104.7H38v20H48Z"/></svg>