<svg xmlns="http://www.w3.org/2000/svg" xmlns:xlink="http://www.w3.org/1999/xlink" version="1.1" x="0px" y="0px" viewBox="0 0 530 640" enable-background="new 0 0 512 512" xml:space="preserve"><g><g><g><path  fill="#fff" d="M346,397c-3.313,0-6-2.687-6-6c0-54.589-44.411-99-99-99c-3.313,0-6-2.687-6-6s2.687-6,6-6c54.589,0,99-44.411,99-99     c0-3.313,2.687-6,6-6s6,2.687,6,6c0,54.589,44.411,99,99,99c3.313,0,6,2.687,6,6s-2.687,6-6,6c-54.589,0-99,44.411-99,99     C352,394.313,349.313,397,346,397z M277.026,286c32.275,11.104,57.869,36.698,68.974,68.974     c11.104-32.275,36.698-57.869,68.974-68.974c-32.275-11.104-57.869-36.698-68.974-68.974     C334.896,249.302,309.302,274.896,277.026,286z"/></g><g><path  fill="#fff" d="M186,442c-3.313,0-6-2.687-6-6c0-40.804-33.196-74-74-74c-3.313,0-6-2.687-6-6s2.687-6,6-6c40.804,0,74-33.196,74-74     c0-3.313,2.687-6,6-6s6,2.687,6,6c0,40.804,33.196,74,74,74c3.313,0,6,2.687,6,6s-2.687,6-6,6c-40.804,0-74,33.196-74,74     C192,439.313,189.313,442,186,442z M137.566,356c22.074,8.739,39.694,26.359,48.434,48.434     c8.74-22.074,26.36-39.694,48.434-48.434c-22.074-8.739-39.694-26.359-48.434-48.434C177.26,329.641,159.64,347.261,137.566,356z     "/></g><g><path  fill="#fff" d="M271,217c-3.313,0-6-2.687-6-6c0-40.804-33.196-74-74-74c-3.313,0-6-2.687-6-6s2.687-6,6-6c40.804,0,74-33.196,74-74     c0-3.313,2.687-6,6-6s6,2.687,6,6c0,40.804,33.196,74,74,74c3.313,0,6,2.687,6,6s-2.687,6-6,6c-40.804,0-74,33.196-74,74     C277,214.313,274.313,217,271,217z M222.566,131c22.074,8.74,39.694,26.36,48.434,48.434     c8.739-22.074,26.359-39.694,48.434-48.434c-22.074-8.74-39.694-26.36-48.434-48.434C262.261,104.64,244.64,122.26,222.566,131z"/></g><g><path  fill="#fff" d="M91,237c-19.851,0-36-16.149-36-36s16.149-36,36-36s36,16.149,36,36S110.851,237,91,237z M91,177     c-13.234,0-24,10.766-24,24s10.766,24,24,24s24-10.766,24-24S104.234,177,91,177z"/></g><g><path  fill="#fff" d="M401,467c-14.337,0-26-11.663-26-26s11.663-26,26-26s26,11.663,26,26S415.337,467,401,467z M401,427     c-7.72,0-14,6.28-14,14s6.28,14,14,14s14-6.28,14-14S408.72,427,401,427z"/></g><g><path  fill="#fff" d="M421,167c-14.337,0-26-11.664-26-26s11.663-26,26-26s26,11.664,26,26S435.337,167,421,167z M421,127     c-7.72,0-14,6.28-14,14s6.28,14,14,14s14-6.28,14-14S428.72,127,421,127z"/></g></g></g></svg>