<svg xmlns="http://www.w3.org/2000/svg" xmlns:xlink="http://www.w3.org/1999/xlink" version="1.1" x="0px" y="0px" viewBox="1 -12.5 90 125" style="enable-background:new 0 0 100 100;" xml:space="preserve"><g><path d="M80,0H20c-2.764,0-5,2.236-5,5v90c0,2.764,2.236,5,5,5h60c2.764,0,5-2.236,5-5V5C85,2.236,82.764,0,80,0z M80,95H20V5h60   V95z M40,80h20c2.764,0,5-2.236,5-5V55l10-25L65,20H40c-2.764,0-5,2.236-5,5v50C35,77.764,37.236,80,40,80z M61.616,50H42.383   l7.003-17.5h19.228L61.616,50z M62.93,25l2.498,2.5H49.572L47.07,25H62.93z M40,25l5,5l-5,12.5V25z M40,55h20v20H40V55z M47.5,12.5   c0-1.382,1.118-2.5,2.5-2.5s2.5,1.118,2.5,2.5S51.382,15,50,15S47.5,13.882,47.5,12.5z M52.5,87.5c0,1.382-1.118,2.5-2.5,2.5   s-2.5-1.118-2.5-2.5S48.618,85,50,85S52.5,86.118,52.5,87.5z"/></g></svg>